<svg xmlns="http://www.w3.org/2000/svg" xmlns:xlink="http://www.w3.org/1999/xlink" width="157" zoomAndPan="magnify" viewBox="0 0 117.75 34.499999" height="46" preserveAspectRatio="xMidYMid meet" version="1.0"><defs><g/><clipPath id="2d777eb717"><path d="M 11 0 L 98 0 L 98 34.007812 L 11 34.007812 Z M 11 0 " clip-rule="nonzero"/></clipPath><clipPath id="4ee58dbbc8"><path d="M 75 0 L 86.476562 0 L 86.476562 34.007812 L 75 34.007812 Z M 75 0 " clip-rule="nonzero"/></clipPath><clipPath id="c9b29bc11e"><path d="M 1 4 L 11.476562 4 L 11.476562 33 L 1 33 Z M 1 4 " clip-rule="nonzero"/></clipPath><clipPath id="f796f30751"><rect x="0" width="12" y="0" height="35"/></clipPath><clipPath id="a9db8ec888"><path d="M 1 0 L 12 0 L 12 34.007812 L 1 34.007812 Z M 1 0 " clip-rule="nonzero"/></clipPath><clipPath id="2a7d1a87fc"><path d="M 0.0742188 4 L 10.957031 4 L 10.957031 33 L 0.0742188 33 Z M 0.0742188 4 " clip-rule="nonzero"/></clipPath><clipPath id="94c0f60c76"><rect x="0" width="11" y="0" height="35"/></clipPath><clipPath id="23249e707e"><path d="M 75 0 L 86.476562 0 L 86.476562 34.007812 L 75 34.007812 Z M 75 0 " clip-rule="nonzero"/></clipPath><clipPath id="74afba24e9"><rect x="0" width="12" y="0" height="35"/></clipPath><clipPath id="0842e51494"><path d="M 0.601562 0 L 12 0 L 12 34.007812 L 0.601562 34.007812 Z M 0.601562 0 " clip-rule="nonzero"/></clipPath><clipPath id="754079cf2b"><path d="M 0.601562 4 L 11 4 L 11 33 L 0.601562 33 Z M 0.601562 4 " clip-rule="nonzero"/></clipPath><clipPath id="7093ca60d3"><rect x="0" width="12" y="0" height="35"/></clipPath><clipPath id="3e1a97dca6"><rect x="0" width="87" y="0" height="35"/></clipPath></defs><g clip-path="url(#2d777eb717)"><g transform="matrix(1, 0, 0, 1, 11, 0)"><g clip-path="url(#3e1a97dca6)"><g fill="#4893e4" fill-opacity="1"><g transform="translate(11.677044, 21.261669)"><g><path d="M 0.4375 0 L 0.4375 -0.171875 L 4.78125 -9.5625 L 2.703125 -9.5625 C 2.046875 -9.5625 1.578125 -9.4375 1.296875 -9.1875 C 1.023438 -8.9375 0.878906 -8.503906 0.859375 -7.890625 L 0.828125 -7.140625 L 0.671875 -7.140625 L 0.765625 -9.703125 L 6.734375 -9.703125 L 6.734375 -9.53125 L 2.375 -0.15625 L 4.96875 -0.15625 C 5.601562 -0.15625 6.054688 -0.273438 6.328125 -0.515625 C 6.597656 -0.765625 6.753906 -1.203125 6.796875 -1.828125 L 6.84375 -2.578125 L 6.96875 -2.578125 L 6.890625 0 Z M 0.4375 0 "/></g></g></g><g fill="#4893e4" fill-opacity="1"><g transform="translate(18.456328, 21.261669)"><g><path d="M 3.421875 0.140625 C 2.453125 0.140625 1.722656 -0.1875 1.234375 -0.84375 C 0.742188 -1.5 0.5 -2.414062 0.5 -3.59375 C 0.5 -4.863281 0.738281 -5.820312 1.21875 -6.46875 C 1.707031 -7.125 2.398438 -7.453125 3.296875 -7.453125 C 4.128906 -7.453125 4.769531 -7.164062 5.21875 -6.59375 C 5.675781 -6.019531 5.90625 -5.195312 5.90625 -4.125 L 5.90625 -3.84375 L 2.25 -3.84375 C 2.25 -2.914062 2.304688 -2.171875 2.421875 -1.609375 C 2.535156 -1.054688 2.707031 -0.65625 2.9375 -0.40625 C 3.175781 -0.164062 3.476562 -0.046875 3.84375 -0.046875 C 4.238281 -0.046875 4.5625 -0.179688 4.8125 -0.453125 C 5.0625 -0.722656 5.21875 -1.210938 5.28125 -1.921875 C 5.40625 -1.878906 5.503906 -1.8125 5.578125 -1.71875 C 5.660156 -1.632812 5.703125 -1.523438 5.703125 -1.390625 C 5.703125 -1.160156 5.625 -0.925781 5.46875 -0.6875 C 5.320312 -0.457031 5.078125 -0.257812 4.734375 -0.09375 C 4.398438 0.0585938 3.960938 0.140625 3.421875 0.140625 Z M 2.25 -3.984375 L 4.1875 -3.984375 C 4.1875 -4.828125 4.160156 -5.488281 4.109375 -5.96875 C 4.054688 -6.457031 3.960938 -6.800781 3.828125 -7 C 3.691406 -7.207031 3.507812 -7.3125 3.28125 -7.3125 C 3.050781 -7.3125 2.859375 -7.207031 2.703125 -7 C 2.554688 -6.800781 2.441406 -6.457031 2.359375 -5.96875 C 2.285156 -5.488281 2.25 -4.828125 2.25 -3.984375 Z M 2.25 -3.984375 "/></g></g></g><g fill="#4893e4" fill-opacity="1"><g transform="translate(24.148746, 21.261669)"><g><path d="M 0.203125 0 L 0.203125 -0.140625 L 0.234375 -0.140625 C 0.566406 -0.140625 0.789062 -0.195312 0.90625 -0.3125 C 1.019531 -0.4375 1.078125 -0.6875 1.078125 -1.0625 L 1.078125 -6.265625 C 1.078125 -6.617188 1.023438 -6.851562 0.921875 -6.96875 C 0.816406 -7.09375 0.601562 -7.15625 0.28125 -7.15625 L 0.265625 -7.15625 L 0.265625 -7.28125 L 2.84375 -7.28125 L 2.84375 -5.96875 L 2.875 -5.96875 C 2.988281 -6.425781 3.171875 -6.785156 3.421875 -7.046875 C 3.679688 -7.304688 4.023438 -7.4375 4.453125 -7.4375 C 4.859375 -7.4375 5.164062 -7.332031 5.375 -7.125 C 5.59375 -6.925781 5.703125 -6.648438 5.703125 -6.296875 C 5.703125 -5.546875 5.25 -5.171875 4.34375 -5.171875 C 4.34375 -5.835938 4.300781 -6.296875 4.21875 -6.546875 C 4.144531 -6.796875 3.992188 -6.921875 3.765625 -6.921875 C 3.503906 -6.921875 3.285156 -6.710938 3.109375 -6.296875 C 2.941406 -5.878906 2.859375 -5.226562 2.859375 -4.34375 L 2.859375 -1.0625 C 2.859375 -0.6875 2.921875 -0.4375 3.046875 -0.3125 C 3.171875 -0.195312 3.425781 -0.140625 3.8125 -0.140625 L 3.9375 -0.140625 L 3.9375 0 Z M 0.203125 0 "/></g></g></g><g fill="#4893e4" fill-opacity="1"><g transform="translate(29.324902, 21.261669)"><g><path d="M 3.390625 0.140625 C 2.484375 0.140625 1.773438 -0.171875 1.265625 -0.796875 C 0.753906 -1.421875 0.5 -2.375 0.5 -3.65625 C 0.5 -6.1875 1.476562 -7.453125 3.4375 -7.453125 C 4.351562 -7.453125 5.0625 -7.132812 5.5625 -6.5 C 6.070312 -5.875 6.328125 -4.925781 6.328125 -3.65625 C 6.328125 -2.363281 6.078125 -1.40625 5.578125 -0.78125 C 5.085938 -0.164062 4.359375 0.140625 3.390625 0.140625 Z M 3.421875 0 C 3.703125 0 3.925781 -0.109375 4.09375 -0.328125 C 4.257812 -0.554688 4.375 -0.929688 4.4375 -1.453125 C 4.507812 -1.984375 4.546875 -2.71875 4.546875 -3.65625 C 4.546875 -4.59375 4.507812 -5.328125 4.4375 -5.859375 C 4.375 -6.390625 4.253906 -6.765625 4.078125 -6.984375 C 3.910156 -7.203125 3.6875 -7.3125 3.40625 -7.3125 C 3.125 -7.3125 2.90625 -7.203125 2.75 -6.984375 C 2.59375 -6.765625 2.476562 -6.390625 2.40625 -5.859375 C 2.332031 -5.328125 2.296875 -4.59375 2.296875 -3.65625 C 2.296875 -2.71875 2.332031 -1.984375 2.40625 -1.453125 C 2.476562 -0.929688 2.597656 -0.554688 2.765625 -0.328125 C 2.929688 -0.109375 3.148438 0 3.421875 0 Z M 3.421875 0 "/></g></g></g><g fill="#4893e4" fill-opacity="1"><g transform="translate(35.479239, 21.261669)"><g/></g></g><g fill="#4893e4" fill-opacity="1"><g transform="translate(37.177419, 21.261669)"><g><path d="M 0.203125 0 L 0.203125 -0.140625 L 0.5 -0.140625 C 0.613281 -0.140625 0.722656 -0.160156 0.828125 -0.203125 C 0.941406 -0.242188 1.035156 -0.328125 1.109375 -0.453125 C 1.191406 -0.585938 1.234375 -0.789062 1.234375 -1.0625 L 1.234375 -7.15625 L 0.265625 -7.15625 L 0.265625 -7.28125 L 1.234375 -7.28125 L 1.234375 -7.828125 C 1.234375 -8.660156 1.40625 -9.304688 1.75 -9.765625 C 2.101562 -10.234375 2.695312 -10.46875 3.53125 -10.46875 C 4.007812 -10.46875 4.378906 -10.421875 4.640625 -10.328125 C 4.898438 -10.234375 5.078125 -10.109375 5.171875 -9.953125 C 5.265625 -9.796875 5.3125 -9.632812 5.3125 -9.46875 C 5.3125 -9.207031 5.234375 -8.992188 5.078125 -8.828125 C 4.921875 -8.660156 4.601562 -8.578125 4.125 -8.578125 C 4.125 -9.222656 4.085938 -9.675781 4.015625 -9.9375 C 3.953125 -10.195312 3.816406 -10.328125 3.609375 -10.328125 C 3.378906 -10.328125 3.21875 -10.195312 3.125 -9.9375 C 3.03125 -9.6875 2.984375 -9.234375 2.984375 -8.578125 L 2.984375 -7.28125 L 4.515625 -7.28125 L 4.515625 -7.15625 L 2.984375 -7.15625 L 2.984375 -1.0625 C 2.984375 -0.789062 3.019531 -0.585938 3.09375 -0.453125 C 3.164062 -0.328125 3.253906 -0.242188 3.359375 -0.203125 C 3.472656 -0.160156 3.59375 -0.140625 3.71875 -0.140625 L 4.296875 -0.140625 L 4.296875 0 Z M 0.203125 0 "/></g></g></g><g fill="#4893e4" fill-opacity="1"><g transform="translate(41.049338, 21.261669)"><g><path d="M 1.90625 -8.609375 C 1.664062 -8.609375 1.460938 -8.675781 1.296875 -8.8125 C 1.140625 -8.957031 1.0625 -9.179688 1.0625 -9.484375 C 1.0625 -9.796875 1.140625 -10.019531 1.296875 -10.15625 C 1.460938 -10.300781 1.664062 -10.375 1.90625 -10.375 C 2.132812 -10.375 2.332031 -10.300781 2.5 -10.15625 C 2.675781 -10.019531 2.765625 -9.796875 2.765625 -9.484375 C 2.765625 -9.179688 2.675781 -8.957031 2.5 -8.8125 C 2.332031 -8.675781 2.132812 -8.609375 1.90625 -8.609375 Z M 0.171875 0 L 0.171875 -0.140625 L 0.328125 -0.140625 C 0.585938 -0.140625 0.78125 -0.203125 0.90625 -0.328125 C 1.03125 -0.460938 1.09375 -0.734375 1.09375 -1.140625 L 1.09375 -6.203125 C 1.09375 -6.585938 1.03125 -6.84375 0.90625 -6.96875 C 0.78125 -7.09375 0.59375 -7.15625 0.34375 -7.15625 L 0.15625 -7.15625 L 0.15625 -7.28125 L 2.84375 -7.28125 L 2.84375 -1.109375 C 2.84375 -0.710938 2.898438 -0.453125 3.015625 -0.328125 C 3.140625 -0.203125 3.335938 -0.140625 3.609375 -0.140625 L 3.734375 -0.140625 L 3.734375 0 Z M 0.171875 0 "/></g></g></g><g fill="#4893e4" fill-opacity="1"><g transform="translate(44.309889, 21.261669)"><g><path d="M 0.125 0 L 0.125 -0.140625 L 0.296875 -0.140625 C 0.585938 -0.140625 0.8125 -0.179688 0.96875 -0.265625 C 1.125 -0.359375 1.285156 -0.546875 1.453125 -0.828125 L 2.984375 -3.4375 L 1.140625 -6.5 C 0.984375 -6.75 0.847656 -6.921875 0.734375 -7.015625 C 0.628906 -7.109375 0.503906 -7.15625 0.359375 -7.15625 L 0.328125 -7.15625 L 0.328125 -7.28125 L 3.828125 -7.28125 L 3.828125 -7.15625 L 3.375 -7.15625 C 3.175781 -7.15625 3.039062 -7.132812 2.96875 -7.09375 C 2.894531 -7.050781 2.859375 -6.984375 2.859375 -6.890625 C 2.859375 -6.742188 2.96875 -6.492188 3.1875 -6.140625 L 4.1875 -4.4375 L 5.21875 -6.1875 C 5.320312 -6.363281 5.398438 -6.515625 5.453125 -6.640625 C 5.515625 -6.765625 5.546875 -6.863281 5.546875 -6.9375 C 5.546875 -7.082031 5.410156 -7.15625 5.140625 -7.15625 L 4.40625 -7.15625 L 4.40625 -7.28125 L 6.84375 -7.28125 L 6.84375 -7.15625 L 6.6875 -7.15625 C 6.394531 -7.15625 6.171875 -7.109375 6.015625 -7.015625 C 5.859375 -6.921875 5.703125 -6.738281 5.546875 -6.46875 L 4.265625 -4.296875 L 6.40625 -0.78125 C 6.5625 -0.507812 6.691406 -0.332031 6.796875 -0.25 C 6.898438 -0.175781 7.015625 -0.140625 7.140625 -0.140625 L 7.15625 -0.140625 L 7.15625 0 L 3.609375 0 L 3.609375 -0.140625 L 4.171875 -0.140625 C 4.367188 -0.140625 4.503906 -0.15625 4.578125 -0.1875 C 4.660156 -0.226562 4.703125 -0.296875 4.703125 -0.390625 C 4.703125 -0.460938 4.671875 -0.5625 4.609375 -0.6875 C 4.554688 -0.820312 4.472656 -0.976562 4.359375 -1.15625 L 3.078125 -3.3125 L 1.765625 -1.09375 C 1.546875 -0.726562 1.4375 -0.484375 1.4375 -0.359375 C 1.4375 -0.210938 1.566406 -0.140625 1.828125 -0.140625 L 2.609375 -0.140625 L 2.609375 0 Z M 0.125 0 "/></g></g></g><g fill="#4893e4" fill-opacity="1"><g transform="translate(50.858215, 21.261669)"><g/></g></g><g fill="#4893e4" fill-opacity="1"><g transform="translate(52.556396, 21.261669)"><g><path d="M 3.265625 0.140625 C 2.722656 0.140625 2.242188 0.0234375 1.828125 -0.203125 C 1.410156 -0.441406 1.082031 -0.832031 0.84375 -1.375 C 0.613281 -1.925781 0.5 -2.675781 0.5 -3.625 C 0.5 -4.59375 0.613281 -5.351562 0.84375 -5.90625 C 1.082031 -6.46875 1.410156 -6.863281 1.828125 -7.09375 C 2.253906 -7.332031 2.75 -7.453125 3.3125 -7.453125 C 4.070312 -7.453125 4.625 -7.304688 4.96875 -7.015625 C 5.3125 -6.734375 5.484375 -6.394531 5.484375 -6 C 5.484375 -5.84375 5.445312 -5.679688 5.375 -5.515625 C 5.300781 -5.359375 5.160156 -5.226562 4.953125 -5.125 C 4.742188 -5.019531 4.4375 -4.96875 4.03125 -4.96875 C 4.03125 -5.59375 4.003906 -6.070312 3.953125 -6.40625 C 3.898438 -6.75 3.816406 -6.984375 3.703125 -7.109375 C 3.585938 -7.242188 3.441406 -7.3125 3.265625 -7.3125 C 3.023438 -7.3125 2.832031 -7.207031 2.6875 -7 C 2.550781 -6.789062 2.445312 -6.421875 2.375 -5.890625 C 2.3125 -5.359375 2.28125 -4.609375 2.28125 -3.640625 C 2.28125 -2.734375 2.328125 -2.015625 2.421875 -1.484375 C 2.515625 -0.953125 2.664062 -0.578125 2.875 -0.359375 C 3.082031 -0.140625 3.347656 -0.03125 3.671875 -0.03125 C 4.035156 -0.03125 4.332031 -0.171875 4.5625 -0.453125 C 4.800781 -0.742188 4.957031 -1.238281 5.03125 -1.9375 C 5.1875 -1.90625 5.300781 -1.828125 5.375 -1.703125 C 5.445312 -1.585938 5.484375 -1.457031 5.484375 -1.3125 C 5.484375 -1.101562 5.414062 -0.890625 5.28125 -0.671875 C 5.144531 -0.453125 4.914062 -0.257812 4.59375 -0.09375 C 4.28125 0.0585938 3.835938 0.140625 3.265625 0.140625 Z M 3.265625 0.140625 "/></g></g></g><g fill="#4893e4" fill-opacity="1"><g transform="translate(57.759727, 21.261669)"><g><path d="M 3.390625 0.140625 C 2.484375 0.140625 1.773438 -0.171875 1.265625 -0.796875 C 0.753906 -1.421875 0.5 -2.375 0.5 -3.65625 C 0.5 -6.1875 1.476562 -7.453125 3.4375 -7.453125 C 4.351562 -7.453125 5.0625 -7.132812 5.5625 -6.5 C 6.070312 -5.875 6.328125 -4.925781 6.328125 -3.65625 C 6.328125 -2.363281 6.078125 -1.40625 5.578125 -0.78125 C 5.085938 -0.164062 4.359375 0.140625 3.390625 0.140625 Z M 3.421875 0 C 3.703125 0 3.925781 -0.109375 4.09375 -0.328125 C 4.257812 -0.554688 4.375 -0.929688 4.4375 -1.453125 C 4.507812 -1.984375 4.546875 -2.71875 4.546875 -3.65625 C 4.546875 -4.59375 4.507812 -5.328125 4.4375 -5.859375 C 4.375 -6.390625 4.253906 -6.765625 4.078125 -6.984375 C 3.910156 -7.203125 3.6875 -7.3125 3.40625 -7.3125 C 3.125 -7.3125 2.90625 -7.203125 2.75 -6.984375 C 2.59375 -6.765625 2.476562 -6.390625 2.40625 -5.859375 C 2.332031 -5.328125 2.296875 -4.59375 2.296875 -3.65625 C 2.296875 -2.71875 2.332031 -1.984375 2.40625 -1.453125 C 2.476562 -0.929688 2.597656 -0.554688 2.765625 -0.328125 C 2.929688 -0.109375 3.148438 0 3.421875 0 Z M 3.421875 0 "/></g></g></g><g fill="#4893e4" fill-opacity="1"><g transform="translate(63.914059, 21.261669)"><g><path d="M 2.75 0.140625 C 2.03125 0.140625 1.472656 -0.148438 1.078125 -0.734375 C 0.679688 -1.328125 0.484375 -2.289062 0.484375 -3.625 C 0.484375 -4.96875 0.679688 -5.9375 1.078125 -6.53125 C 1.484375 -7.132812 2.03125 -7.4375 2.71875 -7.4375 C 3.1875 -7.4375 3.550781 -7.316406 3.8125 -7.078125 C 4.082031 -6.847656 4.257812 -6.46875 4.34375 -5.9375 L 4.375 -5.9375 C 4.363281 -6.351562 4.359375 -6.707031 4.359375 -7 C 4.359375 -7.300781 4.359375 -7.582031 4.359375 -7.84375 L 4.359375 -9.28125 C 4.359375 -9.6875 4.28125 -9.9375 4.125 -10.03125 C 3.976562 -10.132812 3.765625 -10.1875 3.484375 -10.1875 L 3.390625 -10.1875 L 3.390625 -10.328125 L 6.125 -10.328125 L 6.125 -1.171875 C 6.125 -0.753906 6.1875 -0.476562 6.3125 -0.34375 C 6.4375 -0.207031 6.648438 -0.140625 6.953125 -0.140625 L 7.0625 -0.140625 L 7.0625 0 L 4.375 0 L 4.375 -1.3125 L 4.34375 -1.3125 C 4.257812 -0.832031 4.097656 -0.46875 3.859375 -0.21875 C 3.617188 0.0195312 3.25 0.140625 2.75 0.140625 Z M 3.265625 -0.15625 C 3.660156 -0.15625 3.941406 -0.441406 4.109375 -1.015625 C 4.273438 -1.585938 4.359375 -2.453125 4.359375 -3.609375 C 4.359375 -4.742188 4.28125 -5.609375 4.125 -6.203125 C 3.976562 -6.804688 3.703125 -7.109375 3.296875 -7.109375 C 3.054688 -7.109375 2.859375 -7 2.703125 -6.78125 C 2.546875 -6.570312 2.429688 -6.207031 2.359375 -5.6875 C 2.296875 -5.175781 2.265625 -4.476562 2.265625 -3.59375 C 2.265625 -2.71875 2.296875 -2.03125 2.359375 -1.53125 C 2.429688 -1.03125 2.539062 -0.675781 2.6875 -0.46875 C 2.832031 -0.257812 3.023438 -0.15625 3.265625 -0.15625 Z M 3.265625 -0.15625 "/></g></g></g><g fill="#4893e4" fill-opacity="1"><g transform="translate(70.462386, 21.261669)"><g><path d="M 3.421875 0.140625 C 2.453125 0.140625 1.722656 -0.1875 1.234375 -0.84375 C 0.742188 -1.5 0.5 -2.414062 0.5 -3.59375 C 0.5 -4.863281 0.738281 -5.820312 1.21875 -6.46875 C 1.707031 -7.125 2.398438 -7.453125 3.296875 -7.453125 C 4.128906 -7.453125 4.769531 -7.164062 5.21875 -6.59375 C 5.675781 -6.019531 5.90625 -5.195312 5.90625 -4.125 L 5.90625 -3.84375 L 2.25 -3.84375 C 2.25 -2.914062 2.304688 -2.171875 2.421875 -1.609375 C 2.535156 -1.054688 2.707031 -0.65625 2.9375 -0.40625 C 3.175781 -0.164062 3.476562 -0.046875 3.84375 -0.046875 C 4.238281 -0.046875 4.5625 -0.179688 4.8125 -0.453125 C 5.0625 -0.722656 5.21875 -1.210938 5.28125 -1.921875 C 5.40625 -1.878906 5.503906 -1.8125 5.578125 -1.71875 C 5.660156 -1.632812 5.703125 -1.523438 5.703125 -1.390625 C 5.703125 -1.160156 5.625 -0.925781 5.46875 -0.6875 C 5.320312 -0.457031 5.078125 -0.257812 4.734375 -0.09375 C 4.398438 0.0585938 3.960938 0.140625 3.421875 0.140625 Z M 2.25 -3.984375 L 4.1875 -3.984375 C 4.1875 -4.828125 4.160156 -5.488281 4.109375 -5.96875 C 4.054688 -6.457031 3.960938 -6.800781 3.828125 -7 C 3.691406 -7.207031 3.507812 -7.3125 3.28125 -7.3125 C 3.050781 -7.3125 2.859375 -7.207031 2.703125 -7 C 2.554688 -6.800781 2.441406 -6.457031 2.359375 -5.96875 C 2.285156 -5.488281 2.25 -4.828125 2.25 -3.984375 Z M 2.25 -3.984375 "/></g></g></g><g clip-path="url(#4ee58dbbc8)"><g transform="matrix(1, 0, 0, 1, 75, 0)"><g clip-path="url(#f796f30751)"><g clip-path="url(#c9b29bc11e)"><g fill="#000000" fill-opacity="1"><g transform="translate(0.740236, 28.061652)"><g><path d="M 0.6875 3.953125 L 0.6875 3.640625 L 1.71875 3.640625 C 2.375 3.640625 2.835938 3.398438 3.109375 2.921875 C 3.378906 2.441406 3.515625 1.582031 3.515625 0.34375 L 3.515625 -5.65625 C 3.515625 -6.695312 3.671875 -7.523438 3.984375 -8.140625 C 4.296875 -8.765625 4.828125 -9.21875 5.578125 -9.5 C 6.335938 -9.78125 7.363281 -9.941406 8.65625 -9.984375 L 8.65625 -10.046875 C 7.34375 -10.128906 6.3125 -10.320312 5.5625 -10.625 C 4.820312 -10.925781 4.296875 -11.367188 3.984375 -11.953125 C 3.671875 -12.546875 3.515625 -13.332031 3.515625 -14.3125 L 3.515625 -20.25 C 3.515625 -21.476562 3.382812 -22.332031 3.125 -22.8125 C 2.863281 -23.300781 2.394531 -23.546875 1.71875 -23.546875 L 0.6875 -23.546875 L 0.6875 -23.859375 L 3.171875 -23.859375 C 4.617188 -23.859375 5.722656 -23.460938 6.484375 -22.671875 C 7.242188 -21.890625 7.625 -20.769531 7.625 -19.3125 L 7.625 -13.4375 C 7.625 -12.21875 7.859375 -11.367188 8.328125 -10.890625 C 8.804688 -10.410156 9.578125 -10.148438 10.640625 -10.109375 L 10.640625 -9.828125 C 9.515625 -9.804688 8.726562 -9.539062 8.28125 -9.03125 C 7.84375 -8.53125 7.625 -7.695312 7.625 -6.53125 L 7.625 -0.65625 C 7.625 0.800781 7.242188 1.929688 6.484375 2.734375 C 5.722656 3.546875 4.609375 3.953125 3.140625 3.953125 Z M 0.6875 3.953125 "/></g></g></g></g></g></g></g><g clip-path="url(#a9db8ec888)"><g transform="matrix(1, 0, 0, 1, 1, 0)"><g clip-path="url(#94c0f60c76)"><g clip-path="url(#2a7d1a87fc)"><g fill="#000000" fill-opacity="1"><g transform="translate(10.83665, 8.606755)"><g><path d="M -0.6875 -3.953125 L -0.6875 -3.640625 L -1.71875 -3.640625 C -2.375 -3.640625 -2.835938 -3.398438 -3.109375 -2.921875 C -3.378906 -2.441406 -3.515625 -1.582031 -3.515625 -0.34375 L -3.515625 5.65625 C -3.515625 6.695312 -3.671875 7.523438 -3.984375 8.140625 C -4.296875 8.765625 -4.828125 9.21875 -5.578125 9.5 C -6.335938 9.78125 -7.363281 9.941406 -8.65625 9.984375 L -8.65625 10.046875 C -7.34375 10.128906 -6.3125 10.320312 -5.5625 10.625 C -4.820312 10.925781 -4.296875 11.367188 -3.984375 11.953125 C -3.671875 12.546875 -3.515625 13.332031 -3.515625 14.3125 L -3.515625 20.25 C -3.515625 21.476562 -3.382812 22.332031 -3.125 22.8125 C -2.863281 23.300781 -2.394531 23.546875 -1.71875 23.546875 L -0.6875 23.546875 L -0.6875 23.859375 L -3.171875 23.859375 C -4.617188 23.859375 -5.722656 23.460938 -6.484375 22.671875 C -7.242188 21.890625 -7.625 20.769531 -7.625 19.3125 L -7.625 13.4375 C -7.625 12.21875 -7.859375 11.367188 -8.328125 10.890625 C -8.804688 10.410156 -9.578125 10.148438 -10.640625 10.109375 L -10.640625 9.828125 C -9.515625 9.804688 -8.726562 9.539062 -8.28125 9.03125 C -7.84375 8.53125 -7.625 7.695312 -7.625 6.53125 L -7.625 0.65625 C -7.625 -0.800781 -7.242188 -1.929688 -6.484375 -2.734375 C -5.722656 -3.546875 -4.609375 -3.953125 -3.140625 -3.953125 Z M -0.6875 -3.953125 "/></g></g></g></g></g></g></g><g fill="#000000" fill-opacity="1"><g transform="translate(11.269879, 21.261669)"><g><path d="M 0.4375 0 L 0.4375 -0.171875 L 4.78125 -9.5625 L 2.703125 -9.5625 C 2.046875 -9.5625 1.578125 -9.4375 1.296875 -9.1875 C 1.023438 -8.9375 0.878906 -8.503906 0.859375 -7.890625 L 0.828125 -7.140625 L 0.671875 -7.140625 L 0.765625 -9.703125 L 6.734375 -9.703125 L 6.734375 -9.53125 L 2.375 -0.15625 L 4.96875 -0.15625 C 5.601562 -0.15625 6.054688 -0.273438 6.328125 -0.515625 C 6.597656 -0.765625 6.753906 -1.203125 6.796875 -1.828125 L 6.84375 -2.578125 L 6.96875 -2.578125 L 6.890625 0 Z M 0.4375 0 "/></g></g></g><g fill="#000000" fill-opacity="1"><g transform="translate(18.049163, 21.261669)"><g><path d="M 3.421875 0.140625 C 2.453125 0.140625 1.722656 -0.1875 1.234375 -0.84375 C 0.742188 -1.5 0.5 -2.414062 0.5 -3.59375 C 0.5 -4.863281 0.738281 -5.820312 1.21875 -6.46875 C 1.707031 -7.125 2.398438 -7.453125 3.296875 -7.453125 C 4.128906 -7.453125 4.769531 -7.164062 5.21875 -6.59375 C 5.675781 -6.019531 5.90625 -5.195312 5.90625 -4.125 L 5.90625 -3.84375 L 2.25 -3.84375 C 2.25 -2.914062 2.304688 -2.171875 2.421875 -1.609375 C 2.535156 -1.054688 2.707031 -0.65625 2.9375 -0.40625 C 3.175781 -0.164062 3.476562 -0.046875 3.84375 -0.046875 C 4.238281 -0.046875 4.5625 -0.179688 4.8125 -0.453125 C 5.0625 -0.722656 5.21875 -1.210938 5.28125 -1.921875 C 5.40625 -1.878906 5.503906 -1.8125 5.578125 -1.71875 C 5.660156 -1.632812 5.703125 -1.523438 5.703125 -1.390625 C 5.703125 -1.160156 5.625 -0.925781 5.46875 -0.6875 C 5.320312 -0.457031 5.078125 -0.257812 4.734375 -0.09375 C 4.398438 0.0585938 3.960938 0.140625 3.421875 0.140625 Z M 2.25 -3.984375 L 4.1875 -3.984375 C 4.1875 -4.828125 4.160156 -5.488281 4.109375 -5.96875 C 4.054688 -6.457031 3.960938 -6.800781 3.828125 -7 C 3.691406 -7.207031 3.507812 -7.3125 3.28125 -7.3125 C 3.050781 -7.3125 2.859375 -7.207031 2.703125 -7 C 2.554688 -6.800781 2.441406 -6.457031 2.359375 -5.96875 C 2.285156 -5.488281 2.25 -4.828125 2.25 -3.984375 Z M 2.25 -3.984375 "/></g></g></g><g fill="#000000" fill-opacity="1"><g transform="translate(23.741581, 21.261669)"><g><path d="M 0.203125 0 L 0.203125 -0.140625 L 0.234375 -0.140625 C 0.566406 -0.140625 0.789062 -0.195312 0.90625 -0.3125 C 1.019531 -0.4375 1.078125 -0.6875 1.078125 -1.0625 L 1.078125 -6.265625 C 1.078125 -6.617188 1.023438 -6.851562 0.921875 -6.96875 C 0.816406 -7.09375 0.601562 -7.15625 0.28125 -7.15625 L 0.265625 -7.15625 L 0.265625 -7.28125 L 2.84375 -7.28125 L 2.84375 -5.96875 L 2.875 -5.96875 C 2.988281 -6.425781 3.171875 -6.785156 3.421875 -7.046875 C 3.679688 -7.304688 4.023438 -7.4375 4.453125 -7.4375 C 4.859375 -7.4375 5.164062 -7.332031 5.375 -7.125 C 5.59375 -6.925781 5.703125 -6.648438 5.703125 -6.296875 C 5.703125 -5.546875 5.25 -5.171875 4.34375 -5.171875 C 4.34375 -5.835938 4.300781 -6.296875 4.21875 -6.546875 C 4.144531 -6.796875 3.992188 -6.921875 3.765625 -6.921875 C 3.503906 -6.921875 3.285156 -6.710938 3.109375 -6.296875 C 2.941406 -5.878906 2.859375 -5.226562 2.859375 -4.34375 L 2.859375 -1.0625 C 2.859375 -0.6875 2.921875 -0.4375 3.046875 -0.3125 C 3.171875 -0.195312 3.425781 -0.140625 3.8125 -0.140625 L 3.9375 -0.140625 L 3.9375 0 Z M 0.203125 0 "/></g></g></g><g fill="#000000" fill-opacity="1"><g transform="translate(28.917737, 21.261669)"><g><path d="M 3.390625 0.140625 C 2.484375 0.140625 1.773438 -0.171875 1.265625 -0.796875 C 0.753906 -1.421875 0.5 -2.375 0.5 -3.65625 C 0.5 -6.1875 1.476562 -7.453125 3.4375 -7.453125 C 4.351562 -7.453125 5.0625 -7.132812 5.5625 -6.5 C 6.070312 -5.875 6.328125 -4.925781 6.328125 -3.65625 C 6.328125 -2.363281 6.078125 -1.40625 5.578125 -0.78125 C 5.085938 -0.164062 4.359375 0.140625 3.390625 0.140625 Z M 3.421875 0 C 3.703125 0 3.925781 -0.109375 4.09375 -0.328125 C 4.257812 -0.554688 4.375 -0.929688 4.4375 -1.453125 C 4.507812 -1.984375 4.546875 -2.71875 4.546875 -3.65625 C 4.546875 -4.59375 4.507812 -5.328125 4.4375 -5.859375 C 4.375 -6.390625 4.253906 -6.765625 4.078125 -6.984375 C 3.910156 -7.203125 3.6875 -7.3125 3.40625 -7.3125 C 3.125 -7.3125 2.90625 -7.203125 2.75 -6.984375 C 2.59375 -6.765625 2.476562 -6.390625 2.40625 -5.859375 C 2.332031 -5.328125 2.296875 -4.59375 2.296875 -3.65625 C 2.296875 -2.71875 2.332031 -1.984375 2.40625 -1.453125 C 2.476562 -0.929688 2.597656 -0.554688 2.765625 -0.328125 C 2.929688 -0.109375 3.148438 0 3.421875 0 Z M 3.421875 0 "/></g></g></g><g fill="#000000" fill-opacity="1"><g transform="translate(35.072074, 21.261669)"><g/></g></g><g fill="#000000" fill-opacity="1"><g transform="translate(36.770254, 21.261669)"><g><path d="M 0.203125 0 L 0.203125 -0.140625 L 0.5 -0.140625 C 0.613281 -0.140625 0.722656 -0.160156 0.828125 -0.203125 C 0.941406 -0.242188 1.035156 -0.328125 1.109375 -0.453125 C 1.191406 -0.585938 1.234375 -0.789062 1.234375 -1.0625 L 1.234375 -7.15625 L 0.265625 -7.15625 L 0.265625 -7.28125 L 1.234375 -7.28125 L 1.234375 -7.828125 C 1.234375 -8.660156 1.40625 -9.304688 1.75 -9.765625 C 2.101562 -10.234375 2.695312 -10.46875 3.53125 -10.46875 C 4.007812 -10.46875 4.378906 -10.421875 4.640625 -10.328125 C 4.898438 -10.234375 5.078125 -10.109375 5.171875 -9.953125 C 5.265625 -9.796875 5.3125 -9.632812 5.3125 -9.46875 C 5.3125 -9.207031 5.234375 -8.992188 5.078125 -8.828125 C 4.921875 -8.660156 4.601562 -8.578125 4.125 -8.578125 C 4.125 -9.222656 4.085938 -9.675781 4.015625 -9.9375 C 3.953125 -10.195312 3.816406 -10.328125 3.609375 -10.328125 C 3.378906 -10.328125 3.21875 -10.195312 3.125 -9.9375 C 3.03125 -9.6875 2.984375 -9.234375 2.984375 -8.578125 L 2.984375 -7.28125 L 4.515625 -7.28125 L 4.515625 -7.15625 L 2.984375 -7.15625 L 2.984375 -1.0625 C 2.984375 -0.789062 3.019531 -0.585938 3.09375 -0.453125 C 3.164062 -0.328125 3.253906 -0.242188 3.359375 -0.203125 C 3.472656 -0.160156 3.59375 -0.140625 3.71875 -0.140625 L 4.296875 -0.140625 L 4.296875 0 Z M 0.203125 0 "/></g></g></g><g fill="#000000" fill-opacity="1"><g transform="translate(40.642173, 21.261669)"><g><path d="M 1.90625 -8.609375 C 1.664062 -8.609375 1.460938 -8.675781 1.296875 -8.8125 C 1.140625 -8.957031 1.0625 -9.179688 1.0625 -9.484375 C 1.0625 -9.796875 1.140625 -10.019531 1.296875 -10.15625 C 1.460938 -10.300781 1.664062 -10.375 1.90625 -10.375 C 2.132812 -10.375 2.332031 -10.300781 2.5 -10.15625 C 2.675781 -10.019531 2.765625 -9.796875 2.765625 -9.484375 C 2.765625 -9.179688 2.675781 -8.957031 2.5 -8.8125 C 2.332031 -8.675781 2.132812 -8.609375 1.90625 -8.609375 Z M 0.171875 0 L 0.171875 -0.140625 L 0.328125 -0.140625 C 0.585938 -0.140625 0.78125 -0.203125 0.90625 -0.328125 C 1.03125 -0.460938 1.09375 -0.734375 1.09375 -1.140625 L 1.09375 -6.203125 C 1.09375 -6.585938 1.03125 -6.84375 0.90625 -6.96875 C 0.78125 -7.09375 0.59375 -7.15625 0.34375 -7.15625 L 0.15625 -7.15625 L 0.15625 -7.28125 L 2.84375 -7.28125 L 2.84375 -1.109375 C 2.84375 -0.710938 2.898438 -0.453125 3.015625 -0.328125 C 3.140625 -0.203125 3.335938 -0.140625 3.609375 -0.140625 L 3.734375 -0.140625 L 3.734375 0 Z M 0.171875 0 "/></g></g></g><g fill="#000000" fill-opacity="1"><g transform="translate(43.902724, 21.261669)"><g><path d="M 0.125 0 L 0.125 -0.140625 L 0.296875 -0.140625 C 0.585938 -0.140625 0.8125 -0.179688 0.96875 -0.265625 C 1.125 -0.359375 1.285156 -0.546875 1.453125 -0.828125 L 2.984375 -3.4375 L 1.140625 -6.5 C 0.984375 -6.75 0.847656 -6.921875 0.734375 -7.015625 C 0.628906 -7.109375 0.503906 -7.15625 0.359375 -7.15625 L 0.328125 -7.15625 L 0.328125 -7.28125 L 3.828125 -7.28125 L 3.828125 -7.15625 L 3.375 -7.15625 C 3.175781 -7.15625 3.039062 -7.132812 2.96875 -7.09375 C 2.894531 -7.050781 2.859375 -6.984375 2.859375 -6.890625 C 2.859375 -6.742188 2.96875 -6.492188 3.1875 -6.140625 L 4.1875 -4.4375 L 5.21875 -6.1875 C 5.320312 -6.363281 5.398438 -6.515625 5.453125 -6.640625 C 5.515625 -6.765625 5.546875 -6.863281 5.546875 -6.9375 C 5.546875 -7.082031 5.410156 -7.15625 5.140625 -7.15625 L 4.40625 -7.15625 L 4.40625 -7.28125 L 6.84375 -7.28125 L 6.84375 -7.15625 L 6.6875 -7.15625 C 6.394531 -7.15625 6.171875 -7.109375 6.015625 -7.015625 C 5.859375 -6.921875 5.703125 -6.738281 5.546875 -6.46875 L 4.265625 -4.296875 L 6.40625 -0.78125 C 6.5625 -0.507812 6.691406 -0.332031 6.796875 -0.25 C 6.898438 -0.175781 7.015625 -0.140625 7.140625 -0.140625 L 7.15625 -0.140625 L 7.15625 0 L 3.609375 0 L 3.609375 -0.140625 L 4.171875 -0.140625 C 4.367188 -0.140625 4.503906 -0.15625 4.578125 -0.1875 C 4.660156 -0.226562 4.703125 -0.296875 4.703125 -0.390625 C 4.703125 -0.460938 4.671875 -0.5625 4.609375 -0.6875 C 4.554688 -0.820312 4.472656 -0.976562 4.359375 -1.15625 L 3.078125 -3.3125 L 1.765625 -1.09375 C 1.546875 -0.726562 1.4375 -0.484375 1.4375 -0.359375 C 1.4375 -0.210938 1.566406 -0.140625 1.828125 -0.140625 L 2.609375 -0.140625 L 2.609375 0 Z M 0.125 0 "/></g></g></g><g fill="#000000" fill-opacity="1"><g transform="translate(50.451051, 21.261669)"><g/></g></g><g fill="#000000" fill-opacity="1"><g transform="translate(52.149231, 21.261669)"><g><path d="M 3.265625 0.140625 C 2.722656 0.140625 2.242188 0.0234375 1.828125 -0.203125 C 1.410156 -0.441406 1.082031 -0.832031 0.84375 -1.375 C 0.613281 -1.925781 0.5 -2.675781 0.5 -3.625 C 0.5 -4.59375 0.613281 -5.351562 0.84375 -5.90625 C 1.082031 -6.46875 1.410156 -6.863281 1.828125 -7.09375 C 2.253906 -7.332031 2.75 -7.453125 3.3125 -7.453125 C 4.070312 -7.453125 4.625 -7.304688 4.96875 -7.015625 C 5.3125 -6.734375 5.484375 -6.394531 5.484375 -6 C 5.484375 -5.84375 5.445312 -5.679688 5.375 -5.515625 C 5.300781 -5.359375 5.160156 -5.226562 4.953125 -5.125 C 4.742188 -5.019531 4.4375 -4.96875 4.03125 -4.96875 C 4.03125 -5.59375 4.003906 -6.070312 3.953125 -6.40625 C 3.898438 -6.75 3.816406 -6.984375 3.703125 -7.109375 C 3.585938 -7.242188 3.441406 -7.3125 3.265625 -7.3125 C 3.023438 -7.3125 2.832031 -7.207031 2.6875 -7 C 2.550781 -6.789062 2.445312 -6.421875 2.375 -5.890625 C 2.3125 -5.359375 2.28125 -4.609375 2.28125 -3.640625 C 2.28125 -2.734375 2.328125 -2.015625 2.421875 -1.484375 C 2.515625 -0.953125 2.664062 -0.578125 2.875 -0.359375 C 3.082031 -0.140625 3.347656 -0.03125 3.671875 -0.03125 C 4.035156 -0.03125 4.332031 -0.171875 4.5625 -0.453125 C 4.800781 -0.742188 4.957031 -1.238281 5.03125 -1.9375 C 5.1875 -1.90625 5.300781 -1.828125 5.375 -1.703125 C 5.445312 -1.585938 5.484375 -1.457031 5.484375 -1.3125 C 5.484375 -1.101562 5.414062 -0.890625 5.28125 -0.671875 C 5.144531 -0.453125 4.914062 -0.257812 4.59375 -0.09375 C 4.28125 0.0585938 3.835938 0.140625 3.265625 0.140625 Z M 3.265625 0.140625 "/></g></g></g><g fill="#000000" fill-opacity="1"><g transform="translate(57.352562, 21.261669)"><g><path d="M 3.390625 0.140625 C 2.484375 0.140625 1.773438 -0.171875 1.265625 -0.796875 C 0.753906 -1.421875 0.5 -2.375 0.5 -3.65625 C 0.5 -6.1875 1.476562 -7.453125 3.4375 -7.453125 C 4.351562 -7.453125 5.0625 -7.132812 5.5625 -6.5 C 6.070312 -5.875 6.328125 -4.925781 6.328125 -3.65625 C 6.328125 -2.363281 6.078125 -1.40625 5.578125 -0.78125 C 5.085938 -0.164062 4.359375 0.140625 3.390625 0.140625 Z M 3.421875 0 C 3.703125 0 3.925781 -0.109375 4.09375 -0.328125 C 4.257812 -0.554688 4.375 -0.929688 4.4375 -1.453125 C 4.507812 -1.984375 4.546875 -2.71875 4.546875 -3.65625 C 4.546875 -4.59375 4.507812 -5.328125 4.4375 -5.859375 C 4.375 -6.390625 4.253906 -6.765625 4.078125 -6.984375 C 3.910156 -7.203125 3.6875 -7.3125 3.40625 -7.3125 C 3.125 -7.3125 2.90625 -7.203125 2.75 -6.984375 C 2.59375 -6.765625 2.476562 -6.390625 2.40625 -5.859375 C 2.332031 -5.328125 2.296875 -4.59375 2.296875 -3.65625 C 2.296875 -2.71875 2.332031 -1.984375 2.40625 -1.453125 C 2.476562 -0.929688 2.597656 -0.554688 2.765625 -0.328125 C 2.929688 -0.109375 3.148438 0 3.421875 0 Z M 3.421875 0 "/></g></g></g><g fill="#000000" fill-opacity="1"><g transform="translate(63.506894, 21.261669)"><g><path d="M 2.75 0.140625 C 2.03125 0.140625 1.472656 -0.148438 1.078125 -0.734375 C 0.679688 -1.328125 0.484375 -2.289062 0.484375 -3.625 C 0.484375 -4.96875 0.679688 -5.9375 1.078125 -6.53125 C 1.484375 -7.132812 2.03125 -7.4375 2.71875 -7.4375 C 3.1875 -7.4375 3.550781 -7.316406 3.8125 -7.078125 C 4.082031 -6.847656 4.257812 -6.46875 4.34375 -5.9375 L 4.375 -5.9375 C 4.363281 -6.351562 4.359375 -6.707031 4.359375 -7 C 4.359375 -7.300781 4.359375 -7.582031 4.359375 -7.84375 L 4.359375 -9.28125 C 4.359375 -9.6875 4.28125 -9.9375 4.125 -10.03125 C 3.976562 -10.132812 3.765625 -10.1875 3.484375 -10.1875 L 3.390625 -10.1875 L 3.390625 -10.328125 L 6.125 -10.328125 L 6.125 -1.171875 C 6.125 -0.753906 6.1875 -0.476562 6.3125 -0.34375 C 6.4375 -0.207031 6.648438 -0.140625 6.953125 -0.140625 L 7.0625 -0.140625 L 7.0625 0 L 4.375 0 L 4.375 -1.3125 L 4.34375 -1.3125 C 4.257812 -0.832031 4.097656 -0.46875 3.859375 -0.21875 C 3.617188 0.0195312 3.25 0.140625 2.75 0.140625 Z M 3.265625 -0.15625 C 3.660156 -0.15625 3.941406 -0.441406 4.109375 -1.015625 C 4.273438 -1.585938 4.359375 -2.453125 4.359375 -3.609375 C 4.359375 -4.742188 4.28125 -5.609375 4.125 -6.203125 C 3.976562 -6.804688 3.703125 -7.109375 3.296875 -7.109375 C 3.054688 -7.109375 2.859375 -7 2.703125 -6.78125 C 2.546875 -6.570312 2.429688 -6.207031 2.359375 -5.6875 C 2.296875 -5.175781 2.265625 -4.476562 2.265625 -3.59375 C 2.265625 -2.71875 2.296875 -2.03125 2.359375 -1.53125 C 2.429688 -1.03125 2.539062 -0.675781 2.6875 -0.46875 C 2.832031 -0.257812 3.023438 -0.15625 3.265625 -0.15625 Z M 3.265625 -0.15625 "/></g></g></g><g fill="#000000" fill-opacity="1"><g transform="translate(70.055221, 21.261669)"><g><path d="M 3.421875 0.140625 C 2.453125 0.140625 1.722656 -0.1875 1.234375 -0.84375 C 0.742188 -1.5 0.5 -2.414062 0.5 -3.59375 C 0.5 -4.863281 0.738281 -5.820312 1.21875 -6.46875 C 1.707031 -7.125 2.398438 -7.453125 3.296875 -7.453125 C 4.128906 -7.453125 4.769531 -7.164062 5.21875 -6.59375 C 5.675781 -6.019531 5.90625 -5.195312 5.90625 -4.125 L 5.90625 -3.84375 L 2.25 -3.84375 C 2.25 -2.914062 2.304688 -2.171875 2.421875 -1.609375 C 2.535156 -1.054688 2.707031 -0.65625 2.9375 -0.40625 C 3.175781 -0.164062 3.476562 -0.046875 3.84375 -0.046875 C 4.238281 -0.046875 4.5625 -0.179688 4.8125 -0.453125 C 5.0625 -0.722656 5.21875 -1.210938 5.28125 -1.921875 C 5.40625 -1.878906 5.503906 -1.8125 5.578125 -1.71875 C 5.660156 -1.632812 5.703125 -1.523438 5.703125 -1.390625 C 5.703125 -1.160156 5.625 -0.925781 5.46875 -0.6875 C 5.320312 -0.457031 5.078125 -0.257812 4.734375 -0.09375 C 4.398438 0.0585938 3.960938 0.140625 3.421875 0.140625 Z M 2.25 -3.984375 L 4.1875 -3.984375 C 4.1875 -4.828125 4.160156 -5.488281 4.109375 -5.96875 C 4.054688 -6.457031 3.960938 -6.800781 3.828125 -7 C 3.691406 -7.207031 3.507812 -7.3125 3.28125 -7.3125 C 3.050781 -7.3125 2.859375 -7.207031 2.703125 -7 C 2.554688 -6.800781 2.441406 -6.457031 2.359375 -5.96875 C 2.285156 -5.488281 2.25 -4.828125 2.25 -3.984375 Z M 2.25 -3.984375 "/></g></g></g><g clip-path="url(#23249e707e)"><g transform="matrix(1, 0, 0, 1, 75, 0)"><g clip-path="url(#74afba24e9)"><g fill="#4893e4" fill-opacity="1"><g transform="translate(0.333066, 28.061652)"><g><path d="M 0.6875 3.953125 L 0.6875 3.640625 L 1.71875 3.640625 C 2.375 3.640625 2.835938 3.398438 3.109375 2.921875 C 3.378906 2.441406 3.515625 1.582031 3.515625 0.34375 L 3.515625 -5.65625 C 3.515625 -6.695312 3.671875 -7.523438 3.984375 -8.140625 C 4.296875 -8.765625 4.828125 -9.21875 5.578125 -9.5 C 6.335938 -9.78125 7.363281 -9.941406 8.65625 -9.984375 L 8.65625 -10.046875 C 7.34375 -10.128906 6.3125 -10.320312 5.5625 -10.625 C 4.820312 -10.925781 4.296875 -11.367188 3.984375 -11.953125 C 3.671875 -12.546875 3.515625 -13.332031 3.515625 -14.3125 L 3.515625 -20.25 C 3.515625 -21.476562 3.382812 -22.332031 3.125 -22.8125 C 2.863281 -23.300781 2.394531 -23.546875 1.71875 -23.546875 L 0.6875 -23.546875 L 0.6875 -23.859375 L 3.171875 -23.859375 C 4.617188 -23.859375 5.722656 -23.460938 6.484375 -22.671875 C 7.242188 -21.890625 7.625 -20.769531 7.625 -19.3125 L 7.625 -13.4375 C 7.625 -12.21875 7.859375 -11.367188 8.328125 -10.890625 C 8.804688 -10.410156 9.578125 -10.148438 10.640625 -10.109375 L 10.640625 -9.828125 C 9.515625 -9.804688 8.726562 -9.539062 8.28125 -9.03125 C 7.84375 -8.53125 7.625 -7.695312 7.625 -6.53125 L 7.625 -0.65625 C 7.625 0.800781 7.242188 1.929688 6.484375 2.734375 C 5.722656 3.546875 4.609375 3.953125 3.140625 3.953125 Z M 0.6875 3.953125 "/></g></g></g></g></g></g><g clip-path="url(#0842e51494)"><g><g clip-path="url(#7093ca60d3)"><g clip-path="url(#754079cf2b)"><g fill="#4893e4" fill-opacity="1"><g transform="translate(11.429484, 8.606755)"><g><path d="M -0.6875 -3.953125 L -0.6875 -3.640625 L -1.71875 -3.640625 C -2.375 -3.640625 -2.835938 -3.398438 -3.109375 -2.921875 C -3.378906 -2.441406 -3.515625 -1.582031 -3.515625 -0.34375 L -3.515625 5.65625 C -3.515625 6.695312 -3.671875 7.523438 -3.984375 8.140625 C -4.296875 8.765625 -4.828125 9.21875 -5.578125 9.5 C -6.335938 9.78125 -7.363281 9.941406 -8.65625 9.984375 L -8.65625 10.046875 C -7.34375 10.128906 -6.3125 10.320312 -5.5625 10.625 C -4.820312 10.925781 -4.296875 11.367188 -3.984375 11.953125 C -3.671875 12.546875 -3.515625 13.332031 -3.515625 14.3125 L -3.515625 20.25 C -3.515625 21.476562 -3.382812 22.332031 -3.125 22.8125 C -2.863281 23.300781 -2.394531 23.546875 -1.71875 23.546875 L -0.6875 23.546875 L -0.6875 23.859375 L -3.171875 23.859375 C -4.617188 23.859375 -5.722656 23.460938 -6.484375 22.671875 C -7.242188 21.890625 -7.625 20.769531 -7.625 19.3125 L -7.625 13.4375 C -7.625 12.21875 -7.859375 11.367188 -8.328125 10.890625 C -8.804688 10.410156 -9.578125 10.148438 -10.640625 10.109375 L -10.640625 9.828125 C -9.515625 9.804688 -8.726562 9.539062 -8.28125 9.03125 C -7.84375 8.53125 -7.625 7.695312 -7.625 6.53125 L -7.625 0.65625 C -7.625 -0.800781 -7.242188 -1.929688 -6.484375 -2.734375 C -5.722656 -3.546875 -4.609375 -3.953125 -3.140625 -3.953125 Z M -0.6875 -3.953125 "/></g></g></g></g></g></g></g></g></g></g></svg>