<svg xmlns="http://www.w3.org/2000/svg" xmlns:xlink="http://www.w3.org/1999/xlink" width="157" zoomAndPan="magnify" viewBox="0 0 117.75 34.499999" height="46" preserveAspectRatio="xMidYMid meet" version="1.0"><defs><g/><clipPath id="c456a48a67"><path d="M 12 0 L 99 0 L 99 34.007812 L 12 34.007812 Z M 12 0 " clip-rule="nonzero"/></clipPath><clipPath id="80ab213798"><path d="M 75 0 L 86.421875 0 L 86.421875 34.007812 L 75 34.007812 Z M 75 0 " clip-rule="nonzero"/></clipPath><clipPath id="4a3763d3b4"><path d="M 1 2 L 11.421875 2 L 11.421875 31 L 1 31 Z M 1 2 " clip-rule="nonzero"/></clipPath><clipPath id="053c4a10b5"><rect x="0" width="12" y="0" height="35"/></clipPath><clipPath id="a3df57e71e"><path d="M 0.546875 0 L 12 0 L 12 34.007812 L 0.546875 34.007812 Z M 0.546875 0 " clip-rule="nonzero"/></clipPath><clipPath id="51733015b4"><path d="M 0.546875 3 L 11 3 L 11 32 L 0.546875 32 Z M 0.546875 3 " clip-rule="nonzero"/></clipPath><clipPath id="4e055262b8"><rect x="0" width="12" y="0" height="35"/></clipPath><clipPath id="746a6193a5"><rect x="0" width="87" y="0" height="35"/></clipPath></defs><g clip-path="url(#c456a48a67)"><g transform="matrix(1, 0, 0, 1, 12, 0)"><g clip-path="url(#746a6193a5)"><g fill="#ffffff" fill-opacity="1"><g transform="translate(11.0953, 19.946867)"><g><path d="M 0.4375 0 L 0.4375 -0.171875 L 4.8125 -9.59375 L 2.71875 -9.59375 C 2.0625 -9.59375 1.59375 -9.46875 1.3125 -9.21875 C 1.039062 -8.96875 0.890625 -8.535156 0.859375 -7.921875 L 0.828125 -7.171875 L 0.6875 -7.171875 L 0.765625 -9.75 L 6.765625 -9.75 L 6.765625 -9.578125 L 2.390625 -0.15625 L 4.984375 -0.15625 C 5.628906 -0.15625 6.085938 -0.28125 6.359375 -0.53125 C 6.628906 -0.78125 6.785156 -1.210938 6.828125 -1.828125 L 6.875 -2.59375 L 7 -2.59375 L 6.921875 0 Z M 0.4375 0 "/></g></g></g><g fill="#ffffff" fill-opacity="1"><g transform="translate(17.911434, 19.946867)"><g><path d="M 3.4375 0.140625 C 2.46875 0.140625 1.734375 -0.1875 1.234375 -0.84375 C 0.742188 -1.5 0.5 -2.421875 0.5 -3.609375 C 0.5 -4.890625 0.742188 -5.851562 1.234375 -6.5 C 1.722656 -7.15625 2.414062 -7.484375 3.3125 -7.484375 C 4.144531 -7.484375 4.789062 -7.195312 5.25 -6.625 C 5.707031 -6.050781 5.9375 -5.226562 5.9375 -4.15625 L 5.9375 -3.859375 L 2.265625 -3.859375 C 2.265625 -2.921875 2.320312 -2.171875 2.4375 -1.609375 C 2.550781 -1.054688 2.722656 -0.65625 2.953125 -0.40625 C 3.191406 -0.164062 3.492188 -0.046875 3.859375 -0.046875 C 4.253906 -0.046875 4.578125 -0.179688 4.828125 -0.453125 C 5.085938 -0.722656 5.25 -1.210938 5.3125 -1.921875 C 5.425781 -1.890625 5.523438 -1.828125 5.609375 -1.734375 C 5.691406 -1.640625 5.734375 -1.523438 5.734375 -1.390625 C 5.734375 -1.160156 5.65625 -0.925781 5.5 -0.6875 C 5.34375 -0.457031 5.097656 -0.257812 4.765625 -0.09375 C 4.429688 0.0585938 3.988281 0.140625 3.4375 0.140625 Z M 2.265625 -4 L 4.203125 -4 C 4.203125 -4.84375 4.175781 -5.507812 4.125 -6 C 4.070312 -6.488281 3.976562 -6.832031 3.84375 -7.03125 C 3.707031 -7.238281 3.523438 -7.34375 3.296875 -7.34375 C 3.066406 -7.34375 2.875 -7.238281 2.71875 -7.03125 C 2.570312 -6.832031 2.457031 -6.488281 2.375 -6 C 2.300781 -5.507812 2.265625 -4.84375 2.265625 -4 Z M 2.265625 -4 "/></g></g></g><g fill="#ffffff" fill-opacity="1"><g transform="translate(23.634795, 19.946867)"><g><path d="M 0.203125 0 L 0.203125 -0.140625 L 0.234375 -0.140625 C 0.566406 -0.140625 0.789062 -0.195312 0.90625 -0.3125 C 1.019531 -0.4375 1.078125 -0.6875 1.078125 -1.0625 L 1.078125 -6.296875 C 1.078125 -6.648438 1.023438 -6.882812 0.921875 -7 C 0.816406 -7.125 0.601562 -7.1875 0.28125 -7.1875 L 0.265625 -7.1875 L 0.265625 -7.3125 L 2.859375 -7.3125 L 2.859375 -6 L 2.875 -6 C 3 -6.457031 3.1875 -6.816406 3.4375 -7.078125 C 3.695312 -7.335938 4.046875 -7.46875 4.484375 -7.46875 C 4.878906 -7.46875 5.179688 -7.363281 5.390625 -7.15625 C 5.609375 -6.957031 5.71875 -6.679688 5.71875 -6.328125 C 5.71875 -5.578125 5.265625 -5.203125 4.359375 -5.203125 C 4.359375 -5.867188 4.316406 -6.328125 4.234375 -6.578125 C 4.160156 -6.828125 4.007812 -6.953125 3.78125 -6.953125 C 3.519531 -6.953125 3.300781 -6.738281 3.125 -6.3125 C 2.957031 -5.894531 2.875 -5.242188 2.875 -4.359375 L 2.875 -1.0625 C 2.875 -0.6875 2.9375 -0.4375 3.0625 -0.3125 C 3.1875 -0.195312 3.441406 -0.140625 3.828125 -0.140625 L 3.953125 -0.140625 L 3.953125 0 Z M 0.203125 0 "/></g></g></g><g fill="#ffffff" fill-opacity="1"><g transform="translate(28.839088, 19.946867)"><g><path d="M 3.40625 0.140625 C 2.5 0.140625 1.785156 -0.171875 1.265625 -0.796875 C 0.753906 -1.429688 0.5 -2.390625 0.5 -3.671875 C 0.5 -6.210938 1.484375 -7.484375 3.453125 -7.484375 C 4.367188 -7.484375 5.078125 -7.164062 5.578125 -6.53125 C 6.085938 -5.894531 6.34375 -4.941406 6.34375 -3.671875 C 6.34375 -2.378906 6.09375 -1.421875 5.59375 -0.796875 C 5.101562 -0.171875 4.375 0.140625 3.40625 0.140625 Z M 3.4375 0 C 3.71875 0 3.941406 -0.109375 4.109375 -0.328125 C 4.273438 -0.554688 4.390625 -0.9375 4.453125 -1.46875 C 4.523438 -2 4.5625 -2.734375 4.5625 -3.671875 C 4.5625 -4.609375 4.523438 -5.34375 4.453125 -5.875 C 4.390625 -6.414062 4.269531 -6.796875 4.09375 -7.015625 C 3.925781 -7.234375 3.703125 -7.34375 3.421875 -7.34375 C 3.140625 -7.34375 2.921875 -7.234375 2.765625 -7.015625 C 2.609375 -6.796875 2.492188 -6.414062 2.421875 -5.875 C 2.347656 -5.34375 2.3125 -4.609375 2.3125 -3.671875 C 2.3125 -2.734375 2.347656 -2 2.421875 -1.46875 C 2.492188 -0.9375 2.613281 -0.554688 2.78125 -0.328125 C 2.945312 -0.109375 3.164062 0 3.4375 0 Z M 3.4375 0 "/></g></g></g><g fill="#ffffff" fill-opacity="1"><g transform="translate(35.026878, 19.946867)"><g/></g></g><g fill="#ffffff" fill-opacity="1"><g transform="translate(36.734289, 19.946867)"><g><path d="M 0.203125 0 L 0.203125 -0.140625 L 0.5 -0.140625 C 0.613281 -0.140625 0.726562 -0.160156 0.84375 -0.203125 C 0.957031 -0.242188 1.050781 -0.328125 1.125 -0.453125 C 1.207031 -0.585938 1.25 -0.789062 1.25 -1.0625 L 1.25 -7.1875 L 0.265625 -7.1875 L 0.265625 -7.3125 L 1.25 -7.3125 L 1.25 -7.859375 C 1.25 -8.703125 1.421875 -9.351562 1.765625 -9.8125 C 2.117188 -10.28125 2.710938 -10.515625 3.546875 -10.515625 C 4.035156 -10.515625 4.40625 -10.46875 4.65625 -10.375 C 4.914062 -10.28125 5.09375 -10.15625 5.1875 -10 C 5.289062 -9.84375 5.34375 -9.675781 5.34375 -9.5 C 5.34375 -9.25 5.257812 -9.035156 5.09375 -8.859375 C 4.9375 -8.691406 4.617188 -8.609375 4.140625 -8.609375 C 4.140625 -9.265625 4.101562 -9.722656 4.03125 -9.984375 C 3.96875 -10.242188 3.832031 -10.375 3.625 -10.375 C 3.394531 -10.375 3.234375 -10.242188 3.140625 -9.984375 C 3.046875 -9.722656 3 -9.265625 3 -8.609375 L 3 -7.3125 L 4.53125 -7.3125 L 4.53125 -7.1875 L 3 -7.1875 L 3 -1.0625 C 3 -0.789062 3.035156 -0.585938 3.109375 -0.453125 C 3.179688 -0.328125 3.269531 -0.242188 3.375 -0.203125 C 3.488281 -0.160156 3.609375 -0.140625 3.734375 -0.140625 L 4.3125 -0.140625 L 4.3125 0 Z M 0.203125 0 "/></g></g></g><g fill="#ffffff" fill-opacity="1"><g transform="translate(40.627255, 19.946867)"><g><path d="M 1.90625 -8.640625 C 1.675781 -8.640625 1.476562 -8.707031 1.3125 -8.84375 C 1.144531 -8.988281 1.0625 -9.21875 1.0625 -9.53125 C 1.0625 -9.84375 1.144531 -10.066406 1.3125 -10.203125 C 1.476562 -10.347656 1.675781 -10.421875 1.90625 -10.421875 C 2.144531 -10.421875 2.347656 -10.347656 2.515625 -10.203125 C 2.691406 -10.066406 2.78125 -9.84375 2.78125 -9.53125 C 2.78125 -9.21875 2.691406 -8.988281 2.515625 -8.84375 C 2.347656 -8.707031 2.144531 -8.640625 1.90625 -8.640625 Z M 0.171875 0 L 0.171875 -0.140625 L 0.328125 -0.140625 C 0.585938 -0.140625 0.78125 -0.203125 0.90625 -0.328125 C 1.03125 -0.460938 1.09375 -0.734375 1.09375 -1.140625 L 1.09375 -6.234375 C 1.09375 -6.617188 1.03125 -6.875 0.90625 -7 C 0.78125 -7.125 0.59375 -7.1875 0.34375 -7.1875 L 0.15625 -7.1875 L 0.15625 -7.3125 L 2.859375 -7.3125 L 2.859375 -1.125 C 2.859375 -0.71875 2.914062 -0.453125 3.03125 -0.328125 C 3.15625 -0.203125 3.351562 -0.140625 3.625 -0.140625 L 3.75 -0.140625 L 3.75 0 Z M 0.171875 0 "/></g></g></g><g fill="#ffffff" fill-opacity="1"><g transform="translate(43.905529, 19.946867)"><g><path d="M 0.125 0 L 0.125 -0.140625 L 0.296875 -0.140625 C 0.585938 -0.140625 0.8125 -0.179688 0.96875 -0.265625 C 1.132812 -0.359375 1.300781 -0.546875 1.46875 -0.828125 L 3 -3.453125 L 1.140625 -6.53125 C 0.992188 -6.78125 0.863281 -6.953125 0.75 -7.046875 C 0.644531 -7.140625 0.515625 -7.1875 0.359375 -7.1875 L 0.328125 -7.1875 L 0.328125 -7.3125 L 3.84375 -7.3125 L 3.84375 -7.1875 L 3.390625 -7.1875 C 3.191406 -7.1875 3.054688 -7.164062 2.984375 -7.125 C 2.910156 -7.082031 2.875 -7.015625 2.875 -6.921875 C 2.875 -6.773438 2.984375 -6.523438 3.203125 -6.171875 L 4.203125 -4.46875 L 5.25 -6.21875 C 5.34375 -6.394531 5.421875 -6.546875 5.484375 -6.671875 C 5.546875 -6.796875 5.578125 -6.894531 5.578125 -6.96875 C 5.578125 -7.113281 5.4375 -7.1875 5.15625 -7.1875 L 4.421875 -7.1875 L 4.421875 -7.3125 L 6.875 -7.3125 L 6.875 -7.1875 L 6.71875 -7.1875 C 6.425781 -7.1875 6.195312 -7.140625 6.03125 -7.046875 C 5.875 -6.953125 5.722656 -6.769531 5.578125 -6.5 L 4.28125 -4.3125 L 6.4375 -0.78125 C 6.59375 -0.507812 6.722656 -0.332031 6.828125 -0.25 C 6.929688 -0.175781 7.046875 -0.140625 7.171875 -0.140625 L 7.1875 -0.140625 L 7.1875 0 L 3.625 0 L 3.625 -0.140625 L 4.1875 -0.140625 C 4.394531 -0.140625 4.535156 -0.15625 4.609375 -0.1875 C 4.679688 -0.226562 4.71875 -0.296875 4.71875 -0.390625 C 4.71875 -0.460938 4.6875 -0.5625 4.625 -0.6875 C 4.570312 -0.820312 4.492188 -0.976562 4.390625 -1.15625 L 3.09375 -3.328125 L 1.78125 -1.09375 C 1.5625 -0.726562 1.453125 -0.484375 1.453125 -0.359375 C 1.453125 -0.210938 1.578125 -0.140625 1.828125 -0.140625 L 2.625 -0.140625 L 2.625 0 Z M 0.125 0 "/></g></g></g><g fill="#ffffff" fill-opacity="1"><g transform="translate(50.489451, 19.946867)"><g/></g></g><g fill="#ffffff" fill-opacity="1"><g transform="translate(52.196862, 19.946867)"><g><path d="M 3.28125 0.140625 C 2.726562 0.140625 2.242188 0.0234375 1.828125 -0.203125 C 1.410156 -0.441406 1.082031 -0.835938 0.84375 -1.390625 C 0.613281 -1.941406 0.5 -2.691406 0.5 -3.640625 C 0.5 -4.617188 0.617188 -5.382812 0.859375 -5.9375 C 1.097656 -6.5 1.425781 -6.894531 1.84375 -7.125 C 2.269531 -7.363281 2.765625 -7.484375 3.328125 -7.484375 C 4.097656 -7.484375 4.648438 -7.335938 4.984375 -7.046875 C 5.328125 -6.765625 5.5 -6.421875 5.5 -6.015625 C 5.5 -5.867188 5.460938 -5.710938 5.390625 -5.546875 C 5.316406 -5.390625 5.175781 -5.257812 4.96875 -5.15625 C 4.757812 -5.050781 4.453125 -5 4.046875 -5 C 4.046875 -5.613281 4.019531 -6.09375 3.96875 -6.4375 C 3.914062 -6.78125 3.832031 -7.015625 3.71875 -7.140625 C 3.601562 -7.273438 3.457031 -7.34375 3.28125 -7.34375 C 3.039062 -7.34375 2.847656 -7.238281 2.703125 -7.03125 C 2.566406 -6.820312 2.460938 -6.453125 2.390625 -5.921875 C 2.328125 -5.390625 2.296875 -4.632812 2.296875 -3.65625 C 2.296875 -2.75 2.34375 -2.03125 2.4375 -1.5 C 2.53125 -0.96875 2.679688 -0.585938 2.890625 -0.359375 C 3.097656 -0.140625 3.363281 -0.03125 3.6875 -0.03125 C 4.050781 -0.03125 4.347656 -0.175781 4.578125 -0.46875 C 4.816406 -0.757812 4.972656 -1.25 5.046875 -1.9375 C 5.203125 -1.90625 5.316406 -1.832031 5.390625 -1.71875 C 5.460938 -1.601562 5.5 -1.46875 5.5 -1.3125 C 5.5 -1.113281 5.429688 -0.898438 5.296875 -0.671875 C 5.171875 -0.453125 4.945312 -0.257812 4.625 -0.09375 C 4.3125 0.0585938 3.863281 0.140625 3.28125 0.140625 Z M 3.28125 0.140625 "/></g></g></g><g fill="#ffffff" fill-opacity="1"><g transform="translate(57.428477, 19.946867)"><g><path d="M 3.40625 0.140625 C 2.5 0.140625 1.785156 -0.171875 1.265625 -0.796875 C 0.753906 -1.429688 0.5 -2.390625 0.5 -3.671875 C 0.5 -6.210938 1.484375 -7.484375 3.453125 -7.484375 C 4.367188 -7.484375 5.078125 -7.164062 5.578125 -6.53125 C 6.085938 -5.894531 6.34375 -4.941406 6.34375 -3.671875 C 6.34375 -2.378906 6.09375 -1.421875 5.59375 -0.796875 C 5.101562 -0.171875 4.375 0.140625 3.40625 0.140625 Z M 3.4375 0 C 3.71875 0 3.941406 -0.109375 4.109375 -0.328125 C 4.273438 -0.554688 4.390625 -0.9375 4.453125 -1.46875 C 4.523438 -2 4.5625 -2.734375 4.5625 -3.671875 C 4.5625 -4.609375 4.523438 -5.34375 4.453125 -5.875 C 4.390625 -6.414062 4.269531 -6.796875 4.09375 -7.015625 C 3.925781 -7.234375 3.703125 -7.34375 3.421875 -7.34375 C 3.140625 -7.34375 2.921875 -7.234375 2.765625 -7.015625 C 2.609375 -6.796875 2.492188 -6.414062 2.421875 -5.875 C 2.347656 -5.34375 2.3125 -4.609375 2.3125 -3.671875 C 2.3125 -2.734375 2.347656 -2 2.421875 -1.46875 C 2.492188 -0.9375 2.613281 -0.554688 2.78125 -0.328125 C 2.945312 -0.109375 3.164062 0 3.4375 0 Z M 3.4375 0 "/></g></g></g><g fill="#ffffff" fill-opacity="1"><g transform="translate(63.616263, 19.946867)"><g><path d="M 2.765625 0.140625 C 2.046875 0.140625 1.484375 -0.15625 1.078125 -0.75 C 0.679688 -1.34375 0.484375 -2.304688 0.484375 -3.640625 C 0.484375 -4.992188 0.679688 -5.96875 1.078125 -6.5625 C 1.484375 -7.164062 2.035156 -7.46875 2.734375 -7.46875 C 3.203125 -7.46875 3.566406 -7.347656 3.828125 -7.109375 C 4.097656 -6.878906 4.28125 -6.5 4.375 -5.96875 L 4.390625 -5.96875 C 4.390625 -6.382812 4.390625 -6.738281 4.390625 -7.03125 C 4.390625 -7.332031 4.390625 -7.613281 4.390625 -7.875 L 4.390625 -9.328125 C 4.390625 -9.734375 4.3125 -9.984375 4.15625 -10.078125 C 4 -10.179688 3.78125 -10.234375 3.5 -10.234375 L 3.40625 -10.234375 L 3.40625 -10.375 L 6.15625 -10.375 L 6.15625 -1.171875 C 6.15625 -0.753906 6.21875 -0.476562 6.34375 -0.34375 C 6.46875 -0.207031 6.679688 -0.140625 6.984375 -0.140625 L 7.09375 -0.140625 L 7.09375 0 L 4.390625 0 L 4.390625 -1.3125 L 4.375 -1.3125 C 4.28125 -0.832031 4.113281 -0.46875 3.875 -0.21875 C 3.632812 0.0195312 3.265625 0.140625 2.765625 0.140625 Z M 3.28125 -0.15625 C 3.675781 -0.15625 3.957031 -0.441406 4.125 -1.015625 C 4.300781 -1.597656 4.390625 -2.46875 4.390625 -3.625 C 4.390625 -4.769531 4.3125 -5.640625 4.15625 -6.234375 C 4 -6.835938 3.71875 -7.140625 3.3125 -7.140625 C 3.070312 -7.140625 2.875 -7.03125 2.71875 -6.8125 C 2.5625 -6.601562 2.445312 -6.238281 2.375 -5.71875 C 2.3125 -5.195312 2.28125 -4.492188 2.28125 -3.609375 C 2.28125 -2.734375 2.3125 -2.046875 2.375 -1.546875 C 2.445312 -1.046875 2.554688 -0.6875 2.703125 -0.46875 C 2.847656 -0.257812 3.039062 -0.15625 3.28125 -0.15625 Z M 3.28125 -0.15625 "/></g></g></g><g fill="#ffffff" fill-opacity="1"><g transform="translate(70.200184, 19.946867)"><g><path d="M 3.4375 0.140625 C 2.46875 0.140625 1.734375 -0.1875 1.234375 -0.84375 C 0.742188 -1.5 0.5 -2.421875 0.5 -3.609375 C 0.5 -4.890625 0.742188 -5.851562 1.234375 -6.5 C 1.722656 -7.15625 2.414062 -7.484375 3.3125 -7.484375 C 4.144531 -7.484375 4.789062 -7.195312 5.25 -6.625 C 5.707031 -6.050781 5.9375 -5.226562 5.9375 -4.15625 L 5.9375 -3.859375 L 2.265625 -3.859375 C 2.265625 -2.921875 2.320312 -2.171875 2.4375 -1.609375 C 2.550781 -1.054688 2.722656 -0.65625 2.953125 -0.40625 C 3.191406 -0.164062 3.492188 -0.046875 3.859375 -0.046875 C 4.253906 -0.046875 4.578125 -0.179688 4.828125 -0.453125 C 5.085938 -0.722656 5.25 -1.210938 5.3125 -1.921875 C 5.425781 -1.890625 5.523438 -1.828125 5.609375 -1.734375 C 5.691406 -1.640625 5.734375 -1.523438 5.734375 -1.390625 C 5.734375 -1.160156 5.65625 -0.925781 5.5 -0.6875 C 5.34375 -0.457031 5.097656 -0.257812 4.765625 -0.09375 C 4.429688 0.0585938 3.988281 0.140625 3.4375 0.140625 Z M 2.265625 -4 L 4.203125 -4 C 4.203125 -4.84375 4.175781 -5.507812 4.125 -6 C 4.070312 -6.488281 3.976562 -6.832031 3.84375 -7.03125 C 3.707031 -7.238281 3.523438 -7.34375 3.296875 -7.34375 C 3.066406 -7.34375 2.875 -7.238281 2.71875 -7.03125 C 2.570312 -6.832031 2.457031 -6.488281 2.375 -6 C 2.300781 -5.507812 2.265625 -4.84375 2.265625 -4 Z M 2.265625 -4 "/></g></g></g><g clip-path="url(#80ab213798)"><g transform="matrix(1, 0, 0, 1, 75, 0)"><g clip-path="url(#053c4a10b5)"><g clip-path="url(#4a3763d3b4)"><g fill="#ffffff" fill-opacity="1"><g transform="translate(0.506711, 26.783809)"><g><path d="M 0.6875 3.984375 L 0.6875 3.65625 L 1.734375 3.65625 C 2.390625 3.65625 2.851562 3.410156 3.125 2.921875 C 3.394531 2.441406 3.53125 1.582031 3.53125 0.34375 L 3.53125 -5.6875 C 3.53125 -6.738281 3.6875 -7.570312 4 -8.1875 C 4.320312 -8.8125 4.859375 -9.265625 5.609375 -9.546875 C 6.367188 -9.828125 7.40625 -9.988281 8.71875 -10.03125 L 8.71875 -10.09375 C 7.382812 -10.175781 6.34375 -10.367188 5.59375 -10.671875 C 4.851562 -10.984375 4.320312 -11.429688 4 -12.015625 C 3.6875 -12.609375 3.53125 -13.398438 3.53125 -14.390625 L 3.53125 -20.359375 C 3.53125 -21.597656 3.398438 -22.457031 3.140625 -22.9375 C 2.878906 -23.425781 2.410156 -23.671875 1.734375 -23.671875 L 0.6875 -23.671875 L 0.6875 -23.984375 L 3.1875 -23.984375 C 4.632812 -23.984375 5.742188 -23.585938 6.515625 -22.796875 C 7.285156 -22.015625 7.671875 -20.882812 7.671875 -19.40625 L 7.671875 -13.515625 C 7.671875 -12.285156 7.90625 -11.425781 8.375 -10.9375 C 8.851562 -10.457031 9.628906 -10.195312 10.703125 -10.15625 L 10.703125 -9.875 C 9.566406 -9.851562 8.773438 -9.585938 8.328125 -9.078125 C 7.890625 -8.578125 7.671875 -7.738281 7.671875 -6.5625 L 7.671875 -0.65625 C 7.671875 0.808594 7.285156 1.953125 6.515625 2.765625 C 5.742188 3.578125 4.625 3.984375 3.15625 3.984375 Z M 0.6875 3.984375 "/></g></g></g></g></g></g></g><g clip-path="url(#a3df57e71e)"><g><g clip-path="url(#4e055262b8)"><g clip-path="url(#51733015b4)"><g fill="#ffffff" fill-opacity="1"><g transform="translate(11.255773, 7.22316)"><g><path d="M -0.6875 -3.984375 L -0.6875 -3.65625 L -1.734375 -3.65625 C -2.390625 -3.65625 -2.851562 -3.410156 -3.125 -2.921875 C -3.394531 -2.441406 -3.53125 -1.582031 -3.53125 -0.34375 L -3.53125 5.6875 C -3.53125 6.738281 -3.6875 7.570312 -4 8.1875 C -4.320312 8.8125 -4.859375 9.265625 -5.609375 9.546875 C -6.367188 9.828125 -7.40625 9.988281 -8.71875 10.03125 L -8.71875 10.09375 C -7.382812 10.175781 -6.34375 10.367188 -5.59375 10.671875 C -4.851562 10.984375 -4.320312 11.429688 -4 12.015625 C -3.6875 12.609375 -3.53125 13.398438 -3.53125 14.390625 L -3.53125 20.359375 C -3.53125 21.597656 -3.398438 22.457031 -3.140625 22.9375 C -2.878906 23.425781 -2.410156 23.671875 -1.734375 23.671875 L -0.6875 23.671875 L -0.6875 23.984375 L -3.1875 23.984375 C -4.632812 23.984375 -5.742188 23.585938 -6.515625 22.796875 C -7.285156 22.015625 -7.671875 20.882812 -7.671875 19.40625 L -7.671875 13.515625 C -7.671875 12.285156 -7.90625 11.425781 -8.375 10.9375 C -8.851562 10.457031 -9.628906 10.195312 -10.703125 10.15625 L -10.703125 9.875 C -9.566406 9.851562 -8.773438 9.585938 -8.328125 9.078125 C -7.890625 8.578125 -7.671875 7.738281 -7.671875 6.5625 L -7.671875 0.65625 C -7.671875 -0.808594 -7.285156 -1.953125 -6.515625 -2.765625 C -5.742188 -3.578125 -4.625 -3.984375 -3.15625 -3.984375 Z M -0.6875 -3.984375 "/></g></g></g></g></g></g></g></g></g></g></svg>